HIERARCHY
ROOT joint_0
{
	OFFSET -212.520721 120.562408 434.227997
	CHANNELS 6 Xposition Yposition Zposition Zrotation Yrotation Xrotation 
	JOINT joint_1
	{
		OFFSET 0.076353 -27.778170 -6.587521
		CHANNELS 3 Zrotation Yrotation Xrotation
		JOINT joint_2
		{
			OFFSET 0.103596 1.855919 10.547029
			CHANNELS 3 Zrotation Yrotation Xrotation
			JOINT joint_3
			{
				OFFSET 43.450470 -0.000023 -0.000008
				CHANNELS 3 Zrotation Yrotation Xrotation
				JOINT joint_4
				{
					OFFSET 42.284447 0.000006 -0.000009
					CHANNELS 3 Zrotation Yrotation Xrotation
					JOINT joint_5
					{
						OFFSET 17.324776 -0.000003 -0.000002
						CHANNELS 3 Zrotation Yrotation Xrotation
						End Site
						{
							OFFSET 0.000000 0.000000 0.000000
						}
					}
				}
			}
		}
		JOINT joint_6
		{
			OFFSET 0.103602 1.855836 -10.547020
			CHANNELS 3 Zrotation Yrotation Xrotation
			JOINT joint_7
			{
				OFFSET 43.447586 -0.000025 0.000009
				CHANNELS 3 Zrotation Yrotation Xrotation
				JOINT joint_8
				{
					OFFSET 42.282387 0.000008 0.000009
					CHANNELS 3 Zrotation Yrotation Xrotation
					JOINT joint_9
					{
						OFFSET 17.327209 -0.000002 0.000001
						CHANNELS 3 Zrotation Yrotation Xrotation
						End Site
						{
							OFFSET 0.000000 0.000000 0.000000
						}
					}
				}
			}
		}
		JOINT joint_10
		{
			OFFSET 6.903440 -2.607053 0.000000
			CHANNELS 3 Zrotation Yrotation Xrotation
			JOINT joint_11
			{
				OFFSET 12.581183 0.000006 0.000000
				CHANNELS 3 Zrotation Yrotation Xrotation
				JOINT joint_12
				{
					OFFSET 12.325707 -0.000003 0.000001
					CHANNELS 3 Zrotation Yrotation Xrotation
					JOINT joint_13
					{
						OFFSET 25.812309 -0.000002 0.000001
						CHANNELS 3 Zrotation Yrotation Xrotation
						JOINT joint_14
						{
							OFFSET 11.740516 0.000004 -0.000000
							CHANNELS 3 Zrotation Yrotation Xrotation
							End Site
							{
								OFFSET 0.000000 0.000000 0.000000
							}
						}
					}
					JOINT joint_15
					{
						OFFSET 19.731152 -1.480304 5.999896
						CHANNELS 3 Zrotation Yrotation Xrotation
						JOINT joint_16
						{
							OFFSET 11.306273 -0.000013 -0.000006
							CHANNELS 3 Zrotation Yrotation Xrotation
							JOINT joint_17
							{
								OFFSET 32.950130 0.000012 0.000012
								CHANNELS 3 Zrotation Yrotation Xrotation
								JOINT joint_18
								{
									OFFSET 25.223192 0.000071 -0.000211
									CHANNELS 3 Zrotation Yrotation Xrotation
									End Site
									{
										OFFSET 0.000000 0.000000 0.000000
									}
								}
							}
						}
					}
					JOINT joint_19
					{
						OFFSET 19.732466 -1.480287 -5.999909
						CHANNELS 3 Zrotation Yrotation Xrotation
						JOINT joint_20
						{
							OFFSET 11.303796 -0.000013 0.000005
							CHANNELS 3 Zrotation Yrotation Xrotation
							JOINT joint_21
							{
								OFFSET 32.946613 0.000014 -0.000015
								CHANNELS 3 Zrotation Yrotation Xrotation
								JOINT joint_22
								{
									OFFSET 25.225174 0.000092 0.000238
									CHANNELS 3 Zrotation Yrotation Xrotation
									End Site
									{
										OFFSET 0.000000 0.000000 0.000000
									}
								}
							}
						}
					}
				}
			}
		}
	}
}
MOTION
Frames: 8
Frame Time: 0.016667
-212.520721 120.562408 434.227997 0.000000 -8.332734 0.000000 90.591743 -9.701362 92.776184 170.792709 -7.329960 152.350128 -1.986798 3.933750 -52.115452 -5.825727 0.687012 85.965675 0.000010 0.003099 21.485060 -171.745224 5.613820 149.374023 1.586266 -3.159784 -53.967327 6.275880 -0.255543 84.005501 -0.000009 -0.003101 21.483347 -0.006160 0.201663 8.768918 -0.140662 -0.065357 6.994298 -0.302974 -0.279658 7.122912 -0.610429 0.598784 6.818942 -1.324825 1.794437 -6.954455 -8.608366 -80.151909 -172.609543 19.657154 45.845131 -10.949613 1.391549 -12.233603 -52.979553 22.043684 -12.953218 3.770491 3.915540 77.744629 -177.099319 -23.038914 -45.050159 -10.426409 -1.550936 12.167085 -55.803722 -22.657021 11.809274 3.779709 
-212.704758 120.563110 435.952087 0.000000 -8.513125 0.000000 90.815041 -10.306663 92.922119 170.663239 -7.742962 152.683533 -1.850586 3.967501 -52.569355 -5.521180 0.704250 85.141953 0.000010 0.003100 21.485214 -171.092392 5.381061 150.421158 1.565456 -3.325589 -53.635128 6.000155 -0.578537 84.346115 -0.000009 -0.003101 21.483356 -0.030233 0.126286 8.791987 -0.101819 -0.079382 7.017818 -0.306763 -0.203564 7.100639 -0.756419 0.572147 6.175491 -1.362996 1.699686 -7.114700 -9.676761 -79.933861 -171.512085 19.713615 45.902283 -11.688099 1.635479 -11.836734 -53.210258 21.822027 -13.054794 3.802919 3.879646 77.959938 -177.155716 -22.785545 -44.468826 -10.891046 -1.606438 12.093119 -55.873367 -22.573452 11.940769 3.800101 
-212.940430 120.544945 437.653839 0.000000 -8.718416 0.000000 90.822578 -10.246854 92.968155 170.650085 -7.776748 152.721359 -1.861923 3.983976 -52.619297 -5.523759 0.668811 85.134216 0.000010 0.003100 21.485321 -171.102463 5.396937 150.575150 1.580127 -3.358782 -53.687702 6.043194 -0.568030 84.313690 -0.000009 -0.003101 21.483505 -0.027814 0.134906 8.798756 -0.099944 -0.069316 7.011282 -0.331522 -0.186382 7.093722 -0.778576 0.575896 6.207114 -1.316553 1.672087 -7.011535 -9.875211 -79.875092 -171.311905 19.742622 45.848454 -11.590121 1.659088 -11.839766 -53.276615 21.870342 -13.108536 3.820049 3.949641 77.907059 -177.089859 -22.648273 -44.389530 -11.078451 -1.591253 12.079936 -55.725254 -22.544617 11.929461 3.759394 
-213.186508 120.520309 439.355804 0.000000 -8.917146 0.000000 90.835701 -10.194841 92.974663 170.649048 -7.792536 152.752701 -1.830114 3.993602 -52.676331 -5.510287 0.619935 85.100517 0.000010 0.003100 21.485363 -171.106400 5.378963 150.727921 1.570287 -3.395278 -53.733715 6.095408 -0.541167 84.271156 -0.000009 -0.003101 21.483711 -0.030283 0.143817 8.801654 -0.086650 -0.061484 7.007703 -0.349440 -0.173259 7.094381 -0.818627 0.569350 6.197108 -1.250248 1.697195 -6.912723 -9.991363 -79.830711 -171.194687 19.818703 45.776039 -11.431501 1.679650 -11.854210 -53.347469 21.910648 -13.148373 3.859036 3.969651 77.866295 -177.080170 -22.462971 -44.280235 -11.302976 -1.611855 12.060856 -55.677166 -22.500961 11.921375 3.730186 
-213.440826 120.491051 441.057007 0.000000 -9.109708 0.000000 90.856071 -10.164779 92.961830 170.638809 -7.797076 152.777283 -1.785091 4.005101 -52.763542 -5.489385 0.573797 85.035858 0.000010 0.003100 21.485332 -171.089813 5.348485 150.865326 1.538451 -3.428645 -53.760395 6.178724 -0.521331 84.216103 -0.000009 -0.003101 21.483900 -0.032700 0.149845 8.806343 -0.065887 -0.059686 7.000597 -0.352444 -0.165024 7.087198 -0.872931 0.554739 6.196334 -1.181136 1.734065 -6.846570 -10.051124 -79.809731 -171.135757 19.874456 45.690388 -11.320009 1.703222 -11.882489 -53.411308 21.927736 -13.189634 3.905324 3.985642 77.852448 -177.077972 -22.256042 -44.169189 -11.553779 -1.626298 12.043818 -55.648464 -22.461536 11.911275 3.718493 
-213.700912 120.457481 442.756836 0.000000 -9.300503 0.000000 89.177284 -10.209605 90.426437 170.614426 -7.774258 152.744568 -1.747043 4.020097 -52.956173 -5.485465 0.525862 84.961639 0.000010 0.003100 21.485294 -171.049850 5.295879 151.009888 1.475437 -3.458060 -53.772118 6.266123 -0.488834 84.143631 -0.000009 -0.003101 21.484034 -0.030525 0.156920 8.808684 -0.046693 -0.059169 6.996300 -0.352145 -0.155361 7.068689 -0.910058 0.547755 6.235416 -1.109092 1.760885 -6.791358 -10.036983 -79.789215 -171.155563 19.939352 45.606308 -11.274497 1.725736 -11.903502 -53.437473 21.947443 -13.218087 3.965876 4.014427 77.844345 -177.063919 -22.079096 -44.070244 -11.778898 -1.643999 12.037894 -55.659767 -22.457083 11.913030 3.704454 
-213.964676 120.420074 444.458435 0.000000 -9.492272 0.000000 89.221191 -10.198369 90.403412 170.603302 -7.747107 152.695297 -1.705045 4.036020 -53.172073 -5.490289 0.464027 84.882889 0.000010 0.003100 21.485170 -171.021942 5.207098 151.140137 1.411563 -3.477985 -53.769043 6.368672 -0.440906 84.089294 -0.000009 -0.003101 21.484121 -0.030949 0.165889 8.807168 -0.022252 -0.061118 6.998679 -0.347452 -0.145396 7.045455 -0.944315 0.550887 6.272838 -1.037858 1.797463 -6.777041 -9.892615 -79.778625 -171.305679 20.050718 45.511665 -11.216878 1.732402 -11.924736 -53.434383 21.969963 -13.236528 4.029871 4.014418 77.850044 -177.079971 -21.939098 -43.982059 -11.948907 -1.683476 12.042962 -55.760429 -22.437115 11.900949 3.714052 
-214.229294 120.380997 446.161133 0.000000 -9.686813 0.000000 89.260811 -10.192965 90.306816 170.598969 -7.683030 152.627914 -1.660336 4.052618 -53.417507 -5.458618 0.370112 84.778610 0.000010 0.003100 21.484875 -171.053329 5.094868 151.335159 1.382767 -3.491050 -53.704990 6.509704 -0.399240 84.037331 -0.000009 -0.003101 21.484207 -0.030006 0.176320 8.815146 0.021988 -0.073767 7.002131 -0.324284 -0.126066 7.029640 -1.015074 0.605357 6.256178 -0.917393 1.893659 -6.833048 -9.639097 -79.809456 -171.562653 20.328196 45.429413 -11.033278 1.698227 -11.918039 -53.340988 22.003551 -13.230889 4.132213 3.927173 77.863152 -177.186127 -21.770763 -43.867966 -12.217332 -1.765023 12.046319 -55.986885 -22.293934 11.816405 3.744512 
